<?xml version="1.0" encoding="UTF-8" standalone="no"?>
<svg width="69px" height="69px" viewBox="0 0 69 69" version="1.1" xmlns="http://www.w3.org/2000/svg" xmlns:xlink="http://www.w3.org/1999/xlink">
    <!-- Generator: Sketch 40.1 (33804) - http://www.bohemiancoding.com/sketch -->
    <title>Page 1@2x</title>
    <desc>Created with Sketch.</desc>
    <defs>
        <polygon id="path-1" points="0.000270588235 68.7050588 68.7084412 68.7050588 68.7084412 6.76470588e-05 0.000270588235 6.76470588e-05 0.000270588235 68.7050588"></polygon>
    </defs>
    <g id="Page-1" stroke="none" stroke-width="1" fill="none" fill-rule="evenodd">
        <g id="Desktop-HD" transform="translate(-33.000000, -27.000000)">
            <g id="Page-1" transform="translate(33.000000, 27.000000)">
                <mask id="mask-2" fill="white">
                    <use xlink:href="#path-1"></use>
                </mask>
                <g id="Clip-2"></g>
                <path d="M54.1314471,58.9815382 L54.1314471,42.0000971 L57.8682706,43.2157147 L57.8682706,55.4442735 C56.7209765,56.7221265 55.4701824,57.9039206 54.1314471,58.9815382 L54.1314471,58.9815382 Z M2.75147647,34.3532735 C2.75147647,31.3531265 3.18103529,28.4537735 3.96506471,25.7018912 L44.8881529,38.9979206 L44.8881529,64.1490971 C41.5917118,65.3180382 38.0483588,65.9606853 34.3555059,65.9606853 C16.9282706,65.9606853 2.75147647,51.7791559 2.75147647,34.3532735 L2.75147647,34.3532735 Z M55.0744471,10.5205382 L31.5691235,2.88250882 C32.4877706,2.80133235 33.4158882,2.75262647 34.3555059,2.75262647 C42.2790059,2.75262647 49.5233294,5.68850882 55.0744471,10.5205382 L55.0744471,10.5205382 Z M64.0545941,23.5513912 C64.6147118,25.0869794 65.0537412,26.6787147 65.3716824,28.3144206 L12.8302118,11.2436853 C14.0343294,10.1220971 15.3216529,9.08777353 16.6888,8.16236176 L64.0545941,23.5513912 Z M59.0852412,14.7112735 C60.4334471,16.4044794 61.6105059,18.2383912 62.5927412,20.1886559 L19.8404765,6.29597941 C21.7460941,5.30630294 23.7640059,4.50671471 25.8705353,3.91818529 L59.0852412,14.7112735 Z M8.02185882,16.9057441 C8.83227059,15.6874206 9.72588824,14.5299794 10.6925647,13.4374794 L65.8100353,31.3477147 C65.9040647,32.3380676 65.9568294,33.3392441 65.9568294,34.3532735 C65.9568294,34.8098912 65.9412706,35.2631265 65.9223294,35.7156853 L8.02185882,16.9057441 Z M51.3782118,60.9629206 C50.1835647,61.7293618 48.9361529,62.4193618 47.6393588,63.0227735 L47.6393588,39.8908618 L51.3782118,41.1085088 L51.3782118,60.9629206 Z M64.0329471,45.2173912 C63.1589471,47.5978912 62.0048882,49.84445 60.6133882,51.9185088 L60.6133882,44.1106853 L64.0329471,45.2173912 Z M4.83297647,23.0920676 C5.33018235,21.7925676 5.90450588,20.53095 6.56203529,19.3200676 L65.6727118,38.5250676 C65.4893882,39.9125088 65.2181235,41.2715382 64.8595941,42.5967441 L4.83297647,23.0920676 Z M34.3555059,6.76470588e-05 C15.3805059,6.76470588e-05 0.000270588235,15.3836853 0.000270588235,34.3532735 C0.000270588235,53.32895 15.3805059,68.7051265 34.3555059,68.7051265 C53.3244176,68.7051265 68.7087118,53.32895 68.7087118,34.3532735 C68.7087118,15.3836853 53.3244176,6.76470588e-05 34.3555059,6.76470588e-05 L34.3555059,6.76470588e-05 Z" id="Fill-1" fill="#333333" mask="url(#mask-2)"></path>
            </g>
        </g>
    </g>
</svg>